<svg id="icons" xmlns="http://www.w3.org/2000/svg" width="400.681" height="400.425" viewBox="0 0 1077.97 1077.28">
  <metadata><?xpacket begin="﻿" id="W5M0MpCehiHzreSzNTczkc9d"?>
<x:xmpmeta xmlns:x="adobe:ns:meta/" x:xmptk="Adobe XMP Core 5.6-c138 79.159824, 2016/09/14-01:09:01        ">
   <rdf:RDF xmlns:rdf="http://www.w3.org/1999/02/22-rdf-syntax-ns#">
      <rdf:Description rdf:about=""/>
   </rdf:RDF>
</x:xmpmeta>
                                                                                                    
                                                                                                    
                                                                                                    
                                                                                                    
                                                                                                    
                                                                                                    
                                                                                                    
                                                                                                    
                                                                                                    
                                                                                                    
                                                                                                    
                                                                                                    
                                                                                                    
                                                                                                    
                                                                                                    
                                                                                                    
                                                                                                    
                                                                                                    
                                                                                                    
                                                                                                    
                           
<?xpacket end="w"?></metadata>
<defs>
    <style>
      .cls-1 {
        fill-rule: evenodd;
      }
    </style>
  </defs>
  <path id="Forma_1" data-name="Forma 1" class="cls-1" d="M895.5,896.284H865.52a16.216,16.216,0,0,0,.857-16.078,16.86,16.86,0,0,0-15.19-9.236,17.091,17.091,0,0,0-7.466,1.7c-5.7,2.748-10.143,8.092-13.233,12.945-3.09-4.856-7.526-10.2-13.232-12.947a17.089,17.089,0,0,0-7.464-1.7A16.867,16.867,0,0,0,794.6,880.2a16.212,16.212,0,0,0,.86,16.08H765.493a5.429,5.429,0,0,0-5.474,5.351v27.757a5.429,5.429,0,0,0,5.474,5.351h1.494V995.7a10.44,10.44,0,0,0,10.554,10.321h105.9A10.44,10.44,0,0,0,894,995.7V934.743h1.5a5.429,5.429,0,0,0,5.473-5.351V901.635A5.429,5.429,0,0,0,895.5,896.284ZM848.56,882.275a6.131,6.131,0,0,1,8,2.659,5.792,5.792,0,0,1-2.718,7.824A20.3,20.3,0,0,1,845.1,894.4a39.152,39.152,0,0,1-4.464-.291,10.158,10.158,0,0,0-1.078-2.422C841.912,887.888,845.051,883.966,848.56,882.275Zm-44.132,2.656a6.045,6.045,0,0,1,7.994-2.656c3.512,1.691,6.648,5.616,9.007,9.41a10.155,10.155,0,0,0-1.078,2.424,38.425,38.425,0,0,1-4.461.291,20.32,20.32,0,0,1-8.742-1.64A5.8,5.8,0,0,1,804.428,884.931Zm20.822,107.71H780.672V968.36H825.25v24.281Zm-44.578-34.984V934.741H825.25v22.916H780.672Zm99.644,34.984H835.738V968.36h44.578v24.281Zm0-34.984H835.738V934.741h44.578v22.916Z" transform="translate(-566 -393)"/>
  <path id="Forma_1_copy_4" data-name="Forma 1 copy 4" class="cls-1" d="M1191.49,1000.28h-29.97a16.2,16.2,0,0,0,.86-16.074,16.866,16.866,0,0,0-15.19-9.236,17.079,17.079,0,0,0-7.47,1.7c-5.7,2.748-10.14,8.092-13.23,12.945-3.09-4.856-7.53-10.2-13.23-12.947a17.106,17.106,0,0,0-7.47-1.7,16.868,16.868,0,0,0-15.19,9.234,16.209,16.209,0,0,0,.86,16.076h-29.97a5.429,5.429,0,0,0-5.47,5.36v27.75a5.421,5.421,0,0,0,5.47,5.35h1.5v60.96a10.434,10.434,0,0,0,10.55,10.32h105.9A10.443,10.443,0,0,0,1190,1099.7v-60.96h1.49a5.423,5.423,0,0,0,5.48-5.35v-27.75A5.432,5.432,0,0,0,1191.49,1000.28Zm-46.93-14a6.133,6.133,0,0,1,8,2.659,5.783,5.783,0,0,1-2.72,7.824,20.264,20.264,0,0,1-8.74,1.642,39.259,39.259,0,0,1-4.47-.291,10.338,10.338,0,0,0-1.07-2.422C1137.91,991.888,1141.05,987.966,1144.56,986.275Zm-44.13,2.656a6.04,6.04,0,0,1,7.99-2.656c3.51,1.691,6.65,5.616,9.01,9.41a9.966,9.966,0,0,0-1.08,2.424,38.407,38.407,0,0,1-4.46.291,20.3,20.3,0,0,1-8.74-1.64A5.79,5.79,0,0,1,1100.43,988.931Zm20.82,107.709h-44.58v-24.28h44.58v24.28Zm-44.58-34.98v-22.92h44.58v22.92h-44.58Zm99.65,34.98h-44.58v-24.28h44.58v24.28Zm0-34.98h-44.58v-22.92h44.58v22.92Z" transform="translate(-566 -393)"/>
  <path class="cls-1" d="M589.251,859h-0.012a5.425,5.425,0,0,0-5.412,5.433V945.9a5.454,5.454,0,0,0,5.446,5.431c12.66,0.031,33.872,2.666,48.505,17.962V884.035a5.2,5.2,0,0,0-.748-2.751C625.02,861.964,601.941,859.029,589.251,859Zm110.922,86.9V864.432A5.425,5.425,0,0,0,694.762,859h-0.013c-12.689.03-35.769,2.965-47.779,22.285a5.2,5.2,0,0,0-.747,2.751v85.257c14.633-15.3,35.844-17.931,48.505-17.961A5.455,5.455,0,0,0,700.173,945.9Zm12.388-68.113h-3.944V945.9a13.906,13.906,0,0,1-13.869,13.866c-10.739.026-28.446,2.123-40.986,13.979,21.688-5.3,44.552-1.857,57.582,1.109A5.436,5.436,0,0,0,718,969.561V883.219A5.44,5.44,0,0,0,712.561,877.787ZM575.382,945.9V877.787h-3.944A5.442,5.442,0,0,0,566,883.219v86.34a5.437,5.437,0,0,0,6.656,5.294c13.03-2.967,35.894-6.414,57.581-1.11-12.54-11.855-30.246-13.952-40.985-13.977A13.907,13.907,0,0,1,575.382,945.9Z" transform="translate(-566 -393)"/>
  <path id="Forma_1-2" data-name="Forma 1" class="cls-1" d="M780.885,1074.76a12.563,12.563,0,0,0-9.205-3.83H641.321a13.075,13.075,0,0,0-13.036,13.03v99.08a13.075,13.075,0,0,0,13.036,13.03H771.68a13.077,13.077,0,0,0,13.035-13.03v-99.08A12.545,12.545,0,0,0,780.885,1074.76Zm-6.6,108.28a2.518,2.518,0,0,1-.773,1.83,2.485,2.485,0,0,1-1.832.77H641.321a2.636,2.636,0,0,1-2.607-2.6V1133.5H774.285v49.54Zm0-80.83H638.714v-18.25a2.636,2.636,0,0,1,2.607-2.6H771.68a2.485,2.485,0,0,1,1.832.77,2.518,2.518,0,0,1,.773,1.83v18.25h0Zm-125.142,62.58H670v10.42H649.143v-10.42Zm31.286,0h31.286v10.42H680.429v-10.42Z" transform="translate(-566 -393)"/>
  <path id="Forma_1_copy_3" data-name="Forma 1 copy 3" class="cls-1" d="M1238.03,842.931a9.729,9.729,0,0,0-7.12-2.937H1130.09a9.768,9.768,0,0,0-7.13,2.937,9.608,9.608,0,0,0-2.96,7.063v76.011a9.607,9.607,0,0,0,2.96,7.064,9.764,9.764,0,0,0,7.13,2.937h100.82a9.725,9.725,0,0,0,7.12-2.937,9.578,9.578,0,0,0,2.97-7.064V849.994A9.579,9.579,0,0,0,1238.03,842.931Zm-5.1,83.075a1.914,1.914,0,0,1-.6,1.407,1.948,1.948,0,0,1-1.42.593H1130.09a1.949,1.949,0,0,1-1.42-.594,1.914,1.914,0,0,1-.6-1.407V888h104.86v38.006Zm0-62.01H1128.07v-14a1.915,1.915,0,0,1,.6-1.407,1.948,1.948,0,0,1,1.42-.593h100.82a1.948,1.948,0,0,1,1.42.593,1.915,1.915,0,0,1,.6,1.407v14h0ZM1136.14,912h16.13v8h-16.13v-8Zm24.19,0h24.2v8h-24.2v-8Z" transform="translate(-566 -393)"/>
  <path class="cls-1" d="M1500.46,1121.27a3.831,3.831,0,0,1-5.74-.41l-22.85-30.25a3.755,3.755,0,0,1,.35-4.94l1.12-1.11h-6.3a18.994,18.994,0,0,0-19.04,18.91v83.19a11.4,11.4,0,0,0,11.43,11.34h49.76v-85.4Zm58.5-36.71h-6.3l1.12,1.11a3.755,3.755,0,0,1,.35,4.94l-22.85,30.25a3.83,3.83,0,0,1-5.74.41l-8.73-8.67V1198h49.76a11.4,11.4,0,0,0,11.43-11.34v-83.19A18.994,18.994,0,0,0,1558.96,1084.56Zm-30.73,98.32a3.785,3.785,0,1,1,3.81-3.79A3.8,3.8,0,0,1,1528.23,1182.88Zm0-22.69a3.78,3.78,0,1,1,3.81-3.78A3.794,3.794,0,0,1,1528.23,1160.19Zm0-22.69a3.78,3.78,0,1,1,3.81-3.78A3.788,3.788,0,0,1,1528.23,1137.5Zm-30.47-60.5,15.24,20.17,15.24-20.17h-30.48Zm38.5,1.98-18.23,24.13,9.79,9.73,18.24-24.14Zm-46.52,0-9.8,9.72,18.24,24.14,9.79-9.73Z" transform="translate(-566 -393)"/>
  <path id="Forma_1-3" data-name="Forma 1" class="cls-1" d="M1178.88,1338.54a12.553,12.553,0,0,0-9.2-3.83H1039.32a13.059,13.059,0,0,0-13.03,13.04v88.64a13.059,13.059,0,0,0,13.03,13.04h44.32a17.005,17.005,0,0,1-1.3,6.35,57.3,57.3,0,0,1-2.61,5.71,8.945,8.945,0,0,0-1.3,3.58,5.294,5.294,0,0,0,5.21,5.22h41.72a5.294,5.294,0,0,0,5.21-5.22,9.249,9.249,0,0,0-1.3-3.54,60.425,60.425,0,0,1-2.61-5.79,17.125,17.125,0,0,1-1.3-6.31h44.32a13.077,13.077,0,0,0,13.03-13.04v-88.64A12.514,12.514,0,0,0,1178.88,1338.54Zm-6.59,77a2.647,2.647,0,0,1-2.61,2.6H1039.32a2.647,2.647,0,0,1-2.61-2.6v-67.79a2.665,2.665,0,0,1,2.61-2.61h130.36a2.665,2.665,0,0,1,2.61,2.61v67.79h0Z" transform="translate(-566 -393)"/>
  <path id="Forma_1-4" data-name="Forma 1" class="cls-1" d="M1374.09,765.017l-2.14,2.159v-2.159h-10.54c-4.75,7.4-14.78,12.51-26.42,12.51s-21.67-5.112-26.42-12.51h-10.54v2.159l-2.14-2.159-37.9,38.2,20.73,20.9,19.31-19.463v97.332h73.91V804.661l19.31,19.463,20.73-20.907Z" transform="translate(-566 -393)"/>
  <path id="Forma_1-5" data-name="Forma 1" class="cls-1" d="M691.505,652.669a62.788,62.788,0,0,0-27.044,119.474l1.965-38s-3.7-1.216-4.507-1.611c-7.846-3.455-13.545-13.634-13.545-26.839,0-14.411,11.175-26.825,21.982-26.927H670.4c10.807,0.1,21.987,12.516,21.987,26.927,0,13.205-5.709,23.379-13.541,26.839-0.06.027-4.544,1.653-4.544,1.653l2.2,42.255a61.605,61.605,0,0,0,34.991-1.416l1.947-37.655a20.163,20.163,0,0,1-12.246-8.488c-3.4-5.089,2.612-50.12,2.612-50.12h3.916v42.26H711.6V678.767h4.242v42.26h3.869v-42.26h4.4v42.26H728v-42.26h3s6.007,45.03,2.607,50.12a20.248,20.248,0,0,1-12.11,8.465c-0.094.032-.173,0.065-0.173,0.065l1.686,32.389A62.794,62.794,0,0,0,691.505,652.669ZM657.57,699.306a17.2,17.2,0,0,1,.54-1.8,0.824,0.824,0,0,0-.456-0.918,0.752,0.752,0,0,0-.987.214s-0.429.685-1.053,1.7a18.223,18.223,0,0,0-1.769,4,33.123,33.123,0,0,0-1.211,5.8,27.59,27.59,0,0,0-.088,3.362,15.9,15.9,0,0,0,.642,3.562c1.234,3.511,2.184,6.906,5.616,10.253a19.152,19.152,0,0,0,3,2.436l0.284,0.2c0.172,0.116.34,0.219,0.5,0.312a5.667,5.667,0,0,0,1.211.5,0.681,0.681,0,0,0,.582-1.22,7.824,7.824,0,0,1-.894-0.978,17.517,17.517,0,0,1-1.15-1.574c-0.308-.452-0.671-0.954-1.006-1.443-1.672-2.552-2.636-6.114-3.967-9.76a12.941,12.941,0,0,1-.554-2.687,27.055,27.055,0,0,1-.159-2.872,38.2,38.2,0,0,1,.238-5.332A20.74,20.74,0,0,1,657.57,699.306ZM691.505,641A74.5,74.5,0,1,0,766,715.5,74.591,74.591,0,0,0,691.505,641Zm0,143.445A68.948,68.948,0,1,1,760.45,715.5,69.027,69.027,0,0,1,691.505,784.445Z" transform="translate(-566 -393)"/>
  <path id="Forma_1_copy_5" data-name="Forma 1 copy 5" class="cls-1" d="M1357.5,962.669a62.785,62.785,0,0,0-27.04,119.471l1.97-38s-3.7-1.21-4.51-1.61c-7.85-3.45-13.55-13.63-13.55-26.84,0-14.41,11.18-26.821,21.99-26.923h0.04c10.81,0.1,21.98,12.513,21.98,26.923,0,13.21-5.7,23.38-13.54,26.84-0.06.03-4.54,1.66-4.54,1.66l2.2,42.25a61.686,61.686,0,0,0,34.99-1.41l1.95-37.66a20.155,20.155,0,0,1-12.25-8.49c-3.4-5.09,2.61-50.118,2.61-50.118h3.92v42.258h3.88V988.767h4.24v42.263h3.87V988.767h4.41v42.263H1394V988.767h3s6.01,45.033,2.61,50.123a20.262,20.262,0,0,1-12.11,8.46,1.258,1.258,0,0,0-.18.07l1.69,32.39A62.8,62.8,0,0,0,1357.5,962.669Zm-33.93,46.641a18.379,18.379,0,0,1,.54-1.81,0.805,0.805,0,0,0-.46-0.91,0.741,0.741,0,0,0-.98.21s-0.43.68-1.06,1.7a18.926,18.926,0,0,0-1.77,3.99,33.544,33.544,0,0,0-1.21,5.8,27.29,27.29,0,0,0-.08,3.36,15.578,15.578,0,0,0,.64,3.56c1.23,3.51,2.18,6.91,5.61,10.25a19.159,19.159,0,0,0,3.01,2.44l0.28,0.2a5.7,5.7,0,0,0,.5.31,5.14,5.14,0,0,0,1.21.5,0.737,0.737,0,0,0,.83-0.34,0.75,0.75,0,0,0-.24-0.88,8.453,8.453,0,0,1-.9-0.97c-0.34-.39-0.71-0.95-1.15-1.58-0.3-.45-0.67-0.95-1-1.44-1.67-2.55-2.64-6.11-3.97-9.76a12.466,12.466,0,0,1-.55-2.69,26.415,26.415,0,0,1-.16-2.87,38.1,38.1,0,0,1,.23-5.33A20.874,20.874,0,0,1,1323.57,1009.31ZM1357.5,951a74.5,74.5,0,1,0,74.5,74.5A74.592,74.592,0,0,0,1357.5,951Zm0,143.45a68.95,68.95,0,1,1,68.95-68.95A69.04,69.04,0,0,1,1357.5,1094.45Z" transform="translate(-566 -393)"/>
  <path id="Forma_1-6" data-name="Forma 1" class="cls-1" d="M1122.84,773.991a0.772,0.772,0,0,0-.59-0.274h-152.5a0.775,0.775,0,0,0-.591.274,0.786,0.786,0,0,0-.182.63C969,774.764,971.3,789,989.151,789h113.7c17.85,0,20.15-14.235,20.17-14.378A0.8,0.8,0,0,0,1122.84,773.991Zm-65.37,10.024h-22.94V778.7h22.94v5.316Zm-71.88-15.832h120.82a3.179,3.179,0,0,0,3.16-3.19v-74.8a3.179,3.179,0,0,0-3.16-3.189H985.59a3.178,3.178,0,0,0-3.164,3.189v74.8A3.178,3.178,0,0,0,985.59,768.183Zm7.91-70.019h105V757.02h-105V698.164Z" transform="translate(-566 -393)"/>
  <path id="Forma_1-7" data-name="Forma 1" class="cls-1" d="M902.211,1091.82v48.83a5.278,5.278,0,0,0,10.556,0v-48.83A5.278,5.278,0,0,0,902.211,1091.82Zm-16.567,54.14h11.622V1088a7.031,7.031,0,0,0,.082-0.84,45.139,45.139,0,1,1,90.278,0,7.1,7.1,0,0,0,.114,1.13v57.67h11.62a14.891,14.891,0,0,0,14.66-15.11v-30.22a15.055,15.055,0,0,0-10.59-14.51,60.951,60.951,0,0,0-121.89.01,15.045,15.045,0,0,0-10.556,14.5v30.22A14.893,14.893,0,0,0,885.644,1145.96Zm86.6-54.14v48.83a5.278,5.278,0,0,0,10.556,0v-48.83A5.278,5.278,0,0,0,972.241,1091.82Z" transform="translate(-566 -393)"/>
  <path id="Forma_1-8" data-name="Forma 1" class="cls-1" d="M1322.58,499.662a22.675,22.675,0,0,0,.4,3.347l2.63,13.163c2.33,11.68,13.48,20.829,25.37,20.829h18.88a23.585,23.585,0,0,0,23.2-21.878l0.46-7.585,8.85-8.87a5.574,5.574,0,0,0,1.63-3.932V485.56a5.559,5.559,0,0,0-5.55-5.561h-64.13a15.173,15.173,0,0,0-12.23,6.153,17.038,17.038,0,0,0-12.08.133A15.155,15.155,0,0,0,1297.68,480h-64.13a5.559,5.559,0,0,0-5.55,5.561v9.176a5.532,5.532,0,0,0,1.63,3.932l8.85,8.87,0.46,7.585A23.585,23.585,0,0,0,1262.14,537h18.88c11.89,0,23.04-9.149,25.37-20.83l2.63-13.161a20.763,20.763,0,0,0,.39-3.3C1316,494.735,1322.58,499.662,1322.58,499.662Zm-80.81-5.038a4.171,4.171,0,1,1,1.22-2.948A4.178,4.178,0,0,1,1241.77,494.624Zm56.36,6.2-2.63,13.161c-1.29,6.445-7.92,11.889-14.48,11.889h-18.87a12.485,12.485,0,0,1-12.13-11.429l-0.76-12.573a9.981,9.981,0,0,1,10.11-10.756h30.81A7.638,7.638,0,0,1,1298.13,500.828Zm84.61,1.048-0.76,12.574a12.486,12.486,0,0,1-12.13,11.429h-18.87c-6.56,0-13.19-5.445-14.48-11.889l-2.63-13.162a7.638,7.638,0,0,1,7.95-9.707h30.81A10,10,0,0,1,1382.74,501.876Zm13.38-7.252a4.171,4.171,0,1,1,1.22-2.948A4.2,4.2,0,0,1,1396.12,494.624Z" transform="translate(-566 -393)"/>
  <path id="Forma_1_copy_6" data-name="Forma 1 copy 6" class="cls-1" d="M1281.85,1171.46a26.157,26.157,0,0,0,.48,3.99l3.14,15.7c2.78,13.94,16.08,24.85,30.27,24.85h22.52a28.139,28.139,0,0,0,27.69-26.1l0.55-9.05,10.56-10.58a6.638,6.638,0,0,0,1.94-4.69v-10.95a6.63,6.63,0,0,0-6.62-6.63h-76.52c-4.72,0-10.97,2.1-14.6,7.34a20.308,20.308,0,0,0-14.41.16c-3.61-5.37-9.94-7.5-14.71-7.5h-76.52a6.63,6.63,0,0,0-6.62,6.63v10.95a6.638,6.638,0,0,0,1.94,4.69l10.56,10.58,0.55,9.05a28.139,28.139,0,0,0,27.69,26.1h22.52c14.19,0,27.49-10.91,30.27-24.85l3.14-15.7a25.369,25.369,0,0,0,.47-3.93C1274,1165.58,1281.85,1171.46,1281.85,1171.46Zm-96.42-6.01a4.961,4.961,0,0,1-7.03,0,4.98,4.98,0,0,1,3.52-8.5A4.985,4.985,0,0,1,1185.43,1165.45Zm67.25,7.4-3.14,15.7c-1.54,7.69-9.45,14.18-17.28,14.18h-22.52a14.884,14.884,0,0,1-14.46-13.63l-0.91-15a11.9,11.9,0,0,1,12.06-12.83h36.77A9.11,9.11,0,0,1,1252.68,1172.85Zm100.95,1.25-0.91,15a14.884,14.884,0,0,1-14.46,13.63h-22.53c-7.82,0-15.74-6.49-17.27-14.18l-3.14-15.7a9.11,9.11,0,0,1,9.48-11.58h36.77A11.914,11.914,0,0,1,1353.63,1174.1Zm15.97-8.65a5,5,0,1,1,1.45-3.52A5.024,5.024,0,0,1,1369.6,1165.45Z" transform="translate(-566 -393)"/>
  <path class="cls-1" d="M1223.17,651.049h-1.91v-0.242a8.364,8.364,0,0,0-8.34-8.381h-27.3a8.364,8.364,0,0,0-8.34,8.381v0.242h-1.91a6.384,6.384,0,0,0-6.37,6.4v33.123a2.465,2.465,0,0,0,2.46,2.472h55.62a2.465,2.465,0,0,0,2.46-2.472V657.449A6.384,6.384,0,0,0,1223.17,651.049Zm3.91,51.855h-55.62a2.466,2.466,0,0,0-2.46,2.473v9.82a18.75,18.75,0,0,0,18.7,18.8h23.14a18.75,18.75,0,0,0,18.7-18.8v-9.82A2.466,2.466,0,0,0,1227.08,702.9Zm55.46-135.012a6.23,6.23,0,0,0-7.61-1.034h0a39.029,39.029,0,0,0-19.18,33.567,3.477,3.477,0,0,0,3.47,3.49h21.63a3.477,3.477,0,0,0,3.47-3.489v-28A6.488,6.488,0,0,0,1282.54,567.892Zm6.29,96.34h-1.49V614.884a1.1,1.1,0,0,0-1.1-1.109h-32.41a1.1,1.1,0,0,0-1.1,1.109v49.348h-1.5a8.183,8.183,0,0,0-8.16,8.209V725.79a8.183,8.183,0,0,0,8.16,8.21h37.6a8.192,8.192,0,0,0,8.17-8.21V672.441A8.191,8.191,0,0,0,1288.83,664.232Z" transform="translate(-566 -393)"/>
  <path id="Shape_1_copy" data-name="Shape 1 copy" class="cls-1" d="M831.172,1287.05h-1.916v-0.24a8.358,8.358,0,0,0-8.337-8.38h-27.3a8.358,8.358,0,0,0-8.338,8.38v0.24h-1.916a6.38,6.38,0,0,0-6.367,6.4v33.12a2.461,2.461,0,0,0,2.46,2.47h55.62a2.462,2.462,0,0,0,2.46-2.47v-33.12A6.381,6.381,0,0,0,831.172,1287.05Zm3.908,51.85H779.46a2.47,2.47,0,0,0-2.46,2.48v9.82a18.754,18.754,0,0,0,18.7,18.8h23.131a18.754,18.754,0,0,0,18.7-18.8v-9.82A2.469,2.469,0,0,0,835.08,1338.9Zm55.46-135.01a6.231,6.231,0,0,0-7.607-1.03h0a39.022,39.022,0,0,0-19.185,33.57,3.477,3.477,0,0,0,3.471,3.48h21.63a3.477,3.477,0,0,0,3.471-3.48v-28A6.475,6.475,0,0,0,890.54,1203.89Zm6.293,96.34H895.34v-49.35a1.1,1.1,0,0,0-1.1-1.1h-32.4a1.1,1.1,0,0,0-1.1,1.1v49.35h-1.493a8.191,8.191,0,0,0-8.167,8.21v53.35a8.191,8.191,0,0,0,8.167,8.21h37.6a8.191,8.191,0,0,0,8.167-8.21v-53.35A8.191,8.191,0,0,0,896.833,1300.23Z" transform="translate(-566 -393)"/>
  <path id="Forma_1-9" data-name="Forma 1" class="cls-1" d="M1593.91,716.217V716H1461.02v0.217a8.784,8.784,0,0,0-8.02,7.846v87.081a8.526,8.526,0,0,0,1.17,4.357,8.134,8.134,0,0,0,7.58,4.434h47.96V832h-9.11a4,4,0,1,0,0,8h53.73a4,4,0,1,0,0-8h-9.12V819.935h47.97a8.114,8.114,0,0,0,7.58-4.434,8.77,8.77,0,0,0,1.24-4.357V724.063A8.989,8.989,0,0,0,1593.91,716.217Zm0,8.575v86.352a0.626,0.626,0,0,1-.73.728H1461.75a0.626,0.626,0,0,1-.73-0.728V724.063h132.89v0.729Z" transform="translate(-566 -393)"/>
  <path id="Forma_1-10" data-name="Forma 1" class="cls-1" d="M1521.15,589.217a3.761,3.761,0,0,0-2.88-1.348h-14.12c-3.49-9.039-8.02-17.9-13.18-21.243-17.85-11.553-65.19-11.553-83.04,0-5.17,3.347-9.69,12.211-13.19,21.243h-14.12a3.73,3.73,0,0,0-2.88,1.348,3.613,3.613,0,0,0-.76,3.047l2.1,9.964a3.692,3.692,0,0,0,3.63,2.912h4.19a24.449,24.449,0,0,0-6.03,16.123,24,24,0,0,0,7.76,18.137c0.06,0.044.12,0.084,0.17,0.128v13.95a5.527,5.527,0,0,0,5.57,5.481h13.02a5.527,5.527,0,0,0,5.57-5.481V647.87h72.96v5.608a5.536,5.536,0,0,0,5.58,5.481h13.02a5.533,5.533,0,0,0,5.57-5.481V639.8a24.776,24.776,0,0,0,1.62-34.666h4.46a3.687,3.687,0,0,0,3.64-2.912l2.1-9.963A3.646,3.646,0,0,0,1521.15,589.217Zm-107.1-13.435c14.22-9.207,56.57-9.207,70.79,0,2.76,1.787,6.31,8.992,9.57,17.819h-89.93C1407.73,584.778,1411.28,577.573,1414.05,575.782Zm-16.67,46.859a10.967,10.967,0,1,1,10.96,10.782A10.873,10.873,0,0,1,1397.38,622.641Zm93.31,10.782a10.783,10.783,0,1,1,10.96-10.782A10.874,10.874,0,0,1,1490.69,633.423Z" transform="translate(-566 -393)"/>
  <path id="Forma_1-11" data-name="Forma 1" class="cls-1" d="M1287.88,1273.16a17.565,17.565,0,0,0-5.38,12.88v67.78a18.37,18.37,0,0,0,18.25,18.25h5.21V1267.79h-5.21A17.556,17.556,0,0,0,1287.88,1273.16Zm98.91-18.41a7.8,7.8,0,0,0-7.83-7.82h-46.92a7.8,7.8,0,0,0-7.83,7.82v13.04h-10.42v104.28h83.42V1267.79h-10.42v-13.04Zm-10.43,13.04h-41.72v-10.43h41.72v10.43Zm46.76,5.37a17.556,17.556,0,0,0-12.87-5.37h-5.21v104.28h5.21a18.37,18.37,0,0,0,18.25-18.25v-67.78A17.565,17.565,0,0,0,1423.12,1273.16Z" transform="translate(-566 -393)"/>
  <path id="Forma_1-12" data-name="Forma 1" class="cls-1" d="M1054.7,848.137c-0.08-.063-4.08-2.984-7.1.87-9.64,12.381-41.68,53.114-57.2,67.535-13.551,12.595-25.462,5.417-30.807.77v0.012s-2.741-2.846-9.011-.892a0.063,0.063,0,0,1-.03,0c-2.543.838-6,1.9-10.667,3.262-6.612,1.913-8.667,6.887-8.887,11.647,0.125,1.578.9,8.745,4.909,13.517,7.3,7.469,21.549,15.2,36.666,16.82,17.459,1.854,21.728-5.392,21.728-5.392s10.647-14.407,20.627-29.055c0.01-.017.02-0.021,0.03-0.037a70.553,70.553,0,0,1,19.02-18.774c0.59-.26,1.16-0.5,1.7-0.7,1.11-.331,7.07-1.731,7.57,6.387l2.53,43.361,0.02,0.561v0.017l0.02,0.79c0.1,1.154.63,3.156,3.07,3.16,2.29-.045,2.59-2.6,2.61-3.638v-0.445c0.93-11.316,4.99-53.395,8.74-61.067,12.75-29.2,1.33-43.314-5.54-48.711h0Z" transform="translate(-566 -393)"/>
  <path id="Forma_1-13" data-name="Forma 1" class="cls-1" d="M900.519,674.989H834.487a11.388,11.388,0,0,0-11.421,11.366v133.3a11.382,11.382,0,0,0,11.421,11.355h66.032a11.386,11.386,0,0,0,11.415-11.355v-133.3A11.392,11.392,0,0,0,900.519,674.989Zm-49.311,6.9h32.6c0.821,0,1.486,1.221,1.486,2.731s-0.665,2.743-1.486,2.743h-32.6c-0.829,0-1.486-1.227-1.486-2.743S850.379,681.891,851.208,681.891Zm16.3,137.9a7.249,7.249,0,1,1,7.277-7.257A7.28,7.28,0,0,1,867.507,819.8Zm35.871-24.841H831.627V694.167h71.751V794.954Z" transform="translate(-566 -393)"/>
  <path id="Forma_1-14" data-name="Forma 1" class="cls-1" d="M1179.93,407.066A46.224,46.224,0,0,0,1146,393.005h-84A48,48,0,1,0,1093.69,477h20.62A47.971,47.971,0,0,0,1179.93,407.066ZM1092,447a2.88,2.88,0,0,1-3,3h-18v18a2.882,2.882,0,0,1-3,3h-12a2.9,2.9,0,0,1-3-3V450h-18a2.9,2.9,0,0,1-3-3V435a2.9,2.9,0,0,1,3-3h18V414a2.9,2.9,0,0,1,3-3h12a2.883,2.883,0,0,1,3,3v18h18a2.882,2.882,0,0,1,3,3v12Zm50.48,14.483A11.984,11.984,0,1,1,1146,453,11.552,11.552,0,0,1,1142.48,461.482Zm24-24A11.983,11.983,0,1,1,1170,429,11.552,11.552,0,0,1,1166.48,437.484Z" transform="translate(-566 -393)"/>
  <path id="Forma_1_copy" data-name="Forma 1 copy" class="cls-1" d="M1123.93,1206.07a46.2,46.2,0,0,0-33.93-14.06h-84a47.99,47.99,0,1,0,31.69,83.99h20.62A47.972,47.972,0,0,0,1123.93,1206.07ZM1036,1246a2.892,2.892,0,0,1-3,3h-18v18a2.916,2.916,0,0,1-.84,2.15,2.885,2.885,0,0,1-2.16.84h-12a2.879,2.879,0,0,1-3-2.99v-18H979a2.9,2.9,0,0,1-3-3v-12a2.88,2.88,0,0,1,3-3h18v-18a2.895,2.895,0,0,1,3-3h12a2.892,2.892,0,0,1,3,3v18h18a2.877,2.877,0,0,1,3,3v12Zm50.48,14.48A11.987,11.987,0,1,1,1090,1252,11.53,11.53,0,0,1,1086.48,1260.48Zm24-24A11.975,11.975,0,1,1,1114,1228,11.53,11.53,0,0,1,1110.48,1236.48Z" transform="translate(-566 -393)"/>
  <path id="Forma_1-15" data-name="Forma 1" class="cls-1" d="M825.659,548.911A29.83,29.83,0,1,0,836.581,508.2,29.857,29.857,0,0,0,825.659,548.911ZM881.91,458.23l-27.829,16.049c-6.579-6.8-13.157-13.592-21.108-9.006l-31.8,18.341c-7.951,4.585-5.348,13.674-2.745,22.762l-27.829,16.049a9.191,9.191,0,0,0-3.361,12.527l41.315,71.479a9.214,9.214,0,0,0,12.542,3.357l111.316-64.2a9.193,9.193,0,0,0,3.361-12.528l-41.315-71.478A9.214,9.214,0,0,0,881.91,458.23ZM871.871,569.252a40.707,40.707,0,1,1,14.912-55.591A40.767,40.767,0,0,1,871.871,569.252Zm23.811-87.2-15.9,9.171-4.59-7.942,15.9-9.171Z" transform="translate(-566 -393)"/>
  <path id="Forma_1-16" data-name="Forma 1" class="cls-1" d="M1113.31,580.58c-5.15-.948-13.88-0.957-24.27-2.9l1.42,8.579a2.677,2.677,0,1,1-5.28.886l-1.49-8.916a3,3,0,0,0-2.02-2.213q-0.81-.222-1.62-0.456a1.03,1.03,0,0,0-1.42,1.255l0.75,4.5a2.7,2.7,0,0,1-2.2,3.093,3.082,3.082,0,0,1-.45.038,2.678,2.678,0,0,1-2.64-2.241l-1.24-7.411a3.552,3.552,0,0,0-1.95-2.442q-0.96-.4-1.92-0.834c-0.9-.4-1.49.041-1.32,1.017l0.63,3.83a2.676,2.676,0,0,1-2.2,3.092,2.837,2.837,0,0,1-.44.041,2.681,2.681,0,0,1-2.64-2.245l-1.32-7.883a4.422,4.422,0,0,0-1.82-2.686q-1.2-.745-2.4-1.547c-0.82-.546-1.34-0.218-1.18.757l0.92,5.523a2.681,2.681,0,0,1-2.2,3.087,2.434,2.434,0,0,1-.45.04,2.679,2.679,0,0,1-2.64-2.244l-2.28-13.7c-0.53-.613-1.02-1.21-1.41-1.73-3.3-4.39-9.89-12.4-15.33-14.33a8.663,8.663,0,0,0-11.25,5.921c-0.49,1.919.37,5.107,0.98,6.988a10,10,0,0,0,1.89,3.494c1.3,1.49,1.79,3.066.29,4.341-3.53,3-10.19,8.084-17.75,10.886-14.89,5.523-17.5-2.088-17.5-2.088s-3.3-10.7-8.573-14.55a9.947,9.947,0,0,0-6.816-1.133,9.205,9.205,0,0,0-1.9.717c1.176,6.891,6.338,23.521,28.911,34.431,29.28,14.168,87.58,16.994,98.51,17.4,0.99,0.038,1,.207.03,0.372-7.12,1.2-34.7,5.295-62.13,1.925-33.72-4.152-64.75-13.877-72.873-41.255-0.169.6-.328,1.159-0.481,1.641-1.31,4.137-2.524,6.893-2.776,15.888a24.991,24.991,0,0,1-1.559,6.818,29.515,29.515,0,0,0-1.835,9.52c-0.116,4.022-.113,7.457-0.081,9.847a7.433,7.433,0,0,0,2.97,5.677,17.447,17.447,0,0,0,4.525,1.916c1.912,0.5,4.876,1.383,6.76,1.984a14,14,0,0,0,2.817.591c1.964,0.2,4.263-.059,5.126-0.01a1.461,1.461,0,0,1,1.562,1.007c0,0.512,1.032.924,2.307,0.924a4.236,4.236,0,0,0,3.127-1.194,2.834,2.834,0,0,1,2.011-1.193,1.2,1.2,0,0,1,1.194,1.193c0,0.658.965,1.194,2.159,1.194a3.625,3.625,0,0,0,2.9-1.273,2.577,2.577,0,0,1,1.866-1.268,2.751,2.751,0,0,1,1.933,1.268,3.585,3.585,0,0,0,2.757,1.273,3.447,3.447,0,0,0,2.68-1.194,1.414,1.414,0,0,1,2.16,0,7.27,7.27,0,0,0,4.02,1.194c1.44,0,2.77-.434,2.98-0.968a1.886,1.886,0,0,1,1.71-.972,2.929,2.929,0,0,1,2.09.972c0.41,0.534,1.84.732,3.2,0.447a5.075,5.075,0,0,0,3.13-1.866,1,1,0,0,1,1.71-.3,7.331,7.331,0,0,0,3.5,1.417,5.762,5.762,0,0,0,3.65-.522,3.56,3.56,0,0,1,2.38-.674,1.475,1.475,0,0,1,1.19,1.345c0,0.621,1.13,1.12,2.53,1.12a6.793,6.793,0,0,0,3.43-.746,2.987,2.987,0,0,1,2.16-.523,1.385,1.385,0,0,1,1.26.969c0,0.414.7,0.744,1.56,0.744a7.826,7.826,0,0,0,2.83-.6,4.482,4.482,0,0,1,2.16-.446,1.055,1.055,0,0,1,.9.973c0,0.451,1.6.818,3.57,0.818h0.3c1.98,0,3.57-.537,3.57-1.194a1.267,1.267,0,0,1,2.53,0c0,0.659,1.4,1.194,3.13,1.194a10.951,10.951,0,0,0,4.47-.818,2.371,2.371,0,0,1,2.46,0,10.553,10.553,0,0,0,4.61.818c1.94,0,3.84-.468,4.25-1.044a4.43,4.43,0,0,1,2.01-1.419,1.686,1.686,0,0,1,1.86.672c0.33,0.577,2.16.733,4.1,0.359l0.58-.116c1.94-.381,3.71-1.325,3.96-2.111a1.54,1.54,0,0,1,2.98-.6c0.49,0.619,1.96.819,3.27,0.445a4.037,4.037,0,0,0,2.76-2.759,3.517,3.517,0,0,1,1.94-2.607,1.064,1.064,0,0,1,1.56.969c0,0.825,1.49.923,3.34,0.23,1.86-.709,3.36-1.943,3.36-2.767a2.167,2.167,0,0,1,1.12-1.94,1.784,1.784,0,0,1,1.78.221c0.37,0.37,1.47.107,2.46-.6a5.817,5.817,0,0,0,2.09-2.461c0.16-.659,1.68-2.014,3.13-3.361a16.58,16.58,0,0,0,5.05-16.551C1126.49,578.944,1124.26,582.6,1113.31,580.58Z" transform="translate(-566 -393)"/>
  <path id="Forma_1_copy_2" data-name="Forma 1 copy 2" class="cls-1" d="M1627.31,927.58c-5.15-.948-13.88-0.957-24.27-2.9l1.42,8.579a2.677,2.677,0,1,1-5.28.886l-1.49-8.916a3,3,0,0,0-2.02-2.213q-0.81-.222-1.62-0.456a1.03,1.03,0,0,0-1.42,1.255l0.75,4.5a2.7,2.7,0,0,1-2.2,3.093,3.082,3.082,0,0,1-.45.038,2.678,2.678,0,0,1-2.64-2.241l-1.24-7.411a3.552,3.552,0,0,0-1.95-2.442q-0.96-.4-1.92-0.834c-0.9-.4-1.49.041-1.32,1.017l0.63,3.83a2.676,2.676,0,0,1-2.2,3.092,2.837,2.837,0,0,1-.44.041,2.681,2.681,0,0,1-2.64-2.245l-1.32-7.883a4.422,4.422,0,0,0-1.82-2.686q-1.2-.745-2.4-1.547c-0.82-.546-1.34-0.218-1.18.757l0.92,5.523a2.681,2.681,0,0,1-2.2,3.087,2.434,2.434,0,0,1-.45.04,2.679,2.679,0,0,1-2.64-2.244l-2.28-13.7c-0.53-.613-1.02-1.21-1.41-1.73-3.3-4.39-9.89-12.4-15.33-14.33a8.663,8.663,0,0,0-11.25,5.921c-0.49,1.919.37,5.107,0.98,6.988a10,10,0,0,0,1.89,3.494c1.3,1.49,1.79,3.066.29,4.341-3.53,3-10.19,8.084-17.75,10.886-14.89,5.523-17.5-2.088-17.5-2.088s-3.29-10.7-8.57-14.55a9.952,9.952,0,0,0-6.82-1.133,9.257,9.257,0,0,0-1.9.717c1.18,6.891,6.34,23.521,28.91,34.431,29.28,14.168,87.58,16.994,98.51,17.4,0.99,0.038,1,.207.03,0.372-7.12,1.2-34.7,5.295-62.13,1.925-33.72-4.152-64.75-13.877-72.87-41.255-0.17.6-.33,1.159-0.48,1.641-1.31,4.137-2.53,6.893-2.78,15.888a24.774,24.774,0,0,1-1.56,6.818,29.5,29.5,0,0,0-1.83,9.52c-0.12,4.022-.12,7.457-0.09,9.847,0.03,1.978,1.27,4.672,2.98,5.677a17.319,17.319,0,0,0,4.52,1.916c1.91,0.5,4.88,1.383,6.76,1.984a13.9,13.9,0,0,0,2.82.591c1.96,0.2,4.26-.059,5.12-0.01a1.467,1.467,0,0,1,1.57,1.007c0,0.512,1.03.924,2.3,0.924a4.231,4.231,0,0,0,3.13-1.194,2.823,2.823,0,0,1,2.01-1.193,1.192,1.192,0,0,1,1.19,1.193c0,0.658.97,1.194,2.16,1.194a3.615,3.615,0,0,0,2.9-1.273,2.589,2.589,0,0,1,1.87-1.268,2.752,2.752,0,0,1,1.93,1.268A3.6,3.6,0,0,0,1516,972.8a3.447,3.447,0,0,0,2.68-1.194,1.414,1.414,0,0,1,2.16,0,7.27,7.27,0,0,0,4.02,1.194c1.44,0,2.77-.434,2.98-0.968a1.886,1.886,0,0,1,1.71-.972,2.929,2.929,0,0,1,2.09.972c0.41,0.534,1.84.732,3.2,0.447a5.075,5.075,0,0,0,3.13-1.866,1,1,0,0,1,1.71-.3,7.331,7.331,0,0,0,3.5,1.417,5.762,5.762,0,0,0,3.65-.522,3.56,3.56,0,0,1,2.38-.674,1.475,1.475,0,0,1,1.19,1.345c0,0.621,1.13,1.12,2.53,1.12a6.793,6.793,0,0,0,3.43-.746,2.987,2.987,0,0,1,2.16-.523,1.385,1.385,0,0,1,1.26.969c0,0.414.7,0.744,1.56,0.744a7.826,7.826,0,0,0,2.83-.6,4.482,4.482,0,0,1,2.16-.446,1.055,1.055,0,0,1,.9.973c0,0.451,1.6.818,3.57,0.818h0.3c1.98,0,3.57-.537,3.57-1.194a1.267,1.267,0,0,1,2.53,0c0,0.659,1.4,1.194,3.13,1.194a10.951,10.951,0,0,0,4.47-.818,2.371,2.371,0,0,1,2.46,0,10.553,10.553,0,0,0,4.61.818c1.94,0,3.84-.468,4.25-1.044a4.43,4.43,0,0,1,2.01-1.419,1.686,1.686,0,0,1,1.86.672c0.33,0.577,2.16.733,4.1,0.359l0.58-.116c1.94-.381,3.71-1.325,3.96-2.111a1.54,1.54,0,0,1,2.98-.6c0.49,0.619,1.96.819,3.27,0.445a4.037,4.037,0,0,0,2.76-2.759,3.517,3.517,0,0,1,1.94-2.607,1.064,1.064,0,0,1,1.56.969c0,0.825,1.49.923,3.34,0.23,1.86-.709,3.36-1.943,3.36-2.767a2.167,2.167,0,0,1,1.12-1.94,1.784,1.784,0,0,1,1.78.221c0.37,0.37,1.47.107,2.46-.6a5.817,5.817,0,0,0,2.09-2.461c0.16-.659,1.68-2.014,3.13-3.361a16.58,16.58,0,0,0,5.05-16.551C1640.49,925.944,1638.26,929.6,1627.31,927.58Z" transform="translate(-566 -393)"/>
</svg>
